<?xml version="1.0" standalone="no"?>
<!DOCTYPE svg PUBLIC "-//W3C//DTD SVG 20010904//EN"
 "http://www.w3.org/TR/2001/REC-SVG-20010904/DTD/svg10.dtd">
<svg version="1.0" xmlns="http://www.w3.org/2000/svg"
 width="500.000000pt" height="500.000000pt" viewBox="0 0 500.000000 500.000000"
 preserveAspectRatio="xMidYMid meet">
<metadata>
Created by potrace 1.11, written by Peter Selinger 2001-2013
</metadata>
<g transform="translate(0.000000,500.000000) scale(0.100000,-0.100000)"
fill="#000000" stroke="none">
<path d="M2320 4994 c-19 -2 -78 -9 -130 -15 -467 -53 -946 -265 -1315 -581
-471 -404 -769 -957 -856 -1588 -17 -122 -18 -497 -1 -615 58 -412 185 -751
407 -1085 397 -598 1032 -990 1765 -1091 122 -17 497 -18 615 -1 412 58 751
185 1085 407 598 397 990 1032 1091 1765 17 122 18 497 1 615 -58 412 -185
751 -407 1085 -391 588 -1016 981 -1730 1086 -96 14 -453 27 -525 18z m-307
-1483 c302 -83 488 -286 513 -562 l7 -69 -264 0 -265 0 -13 47 c-17 64 -51
106 -108 134 -42 21 -63 24 -158 24 -118 0 -151 -10 -207 -63 -54 -51 -46
-150 17 -197 49 -38 111 -59 295 -99 91 -20 201 -48 245 -63 307 -100 465
-278 481 -545 20 -311 -157 -535 -492 -625 -94 -25 -111 -27 -334 -27 -224 0
-240 1 -334 27 -162 44 -257 96 -351 191 -117 119 -172 245 -190 439 l-7 77
263 -2 262 -3 12 -50 c25 -107 69 -160 171 -207 42 -20 66 -23 164 -23 106 0
120 2 172 28 69 34 98 75 98 140 0 35 -6 53 -26 77 -49 58 -125 86 -374 140
-260 56 -361 93 -476 175 -141 101 -209 242 -208 430 2 186 76 337 226 458 99
78 198 122 358 158 120 27 408 21 523 -10z m2132 -216 l0 -220 -437 -3 -438
-2 0 -175 0 -175 395 0 395 0 -2 -222 -3 -223 -392 -3 -393 -2 0 -395 0 -395
-280 0 -280 0 0 1020 0 1020 718 -2 717 -3 0 -220z"/>
</g>
</svg>
